<svg width="487.277" height="487.276" xmlns="http://www.w3.org/2000/svg" stroke="#7d7d7d" xml:space="preserve" version="1.1" fill="#7d7d7d">

 <g>
  <title>Layer 1</title>
  <g stroke-width="0" id="SVGRepo_bgCarrier"/>
  <g stroke-linejoin="round" stroke-linecap="round" id="SVGRepo_tracerCarrier"/>
  <g id="SVGRepo_iconCarrier">
   <g id="svg_1">
    <path id="svg_2" d="m486.541,152.73l-29.174,-72.968c-1.577,-3.95 -5.345,-6.502 -9.598,-6.502c-0.933,0 -1.864,0.127 -2.769,0.378l-90.081,25.03l-222.56,0l-90.088,-25.03c-0.903,-0.25 -1.833,-0.376 -2.764,-0.376c-4.253,0 -8.019,2.551 -9.594,6.499l-29.171,72.964c-1.089,2.715 -0.975,5.775 0.314,8.396c1.29,2.627 3.639,4.59 6.444,5.386l84.519,24.116l0.134,207.514c0,8.756 7.123,15.879 15.879,15.879l271.346,0c8.756,0 15.879,-7.123 15.879,-15.878l0.052,-207.528l84.468,-24.102c2.81,-0.799 5.157,-2.761 6.443,-5.381c1.287,-2.621 1.405,-5.68 0.321,-8.397zm-364.571,-42.418l-26.972,66.6l-79.752,-22.755l26.447,-66.151l80.277,22.306zm257.407,289.703l-271.344,0c-1.036,0 -1.879,-0.845 -1.879,-1.883l-0.133,-205.495l275.287,-0.081l-0.051,205.58c-0.001,1.036 -0.843,1.879 -1.88,1.879zm-269.971,-221.379l26.716,-65.967l213.12,0l28.427,65.888l-268.263,0.079zm362.629,-24.478l-79.821,22.775l-28.543,-66.166l81.915,-22.761l26.449,66.152z"/>
   </g>
  </g>
  <g>
   <g stroke-width="0" id="svg_6"/>
   <g stroke-linejoin="round" stroke-linecap="round" id="svg_5"/>
   <g id="svg_4">
    <g>
     <path d="m486.54087,152.73001l-29.174,-72.968c-1.577,-3.95 -5.345,-6.502 -9.598,-6.502c-0.933,0 -1.864,0.127 -2.769,0.378l-90.081,25.03l-222.56,0l-90.088,-25.03c-0.903,-0.25 -1.833,-0.376 -2.764,-0.376c-4.253,0 -8.019,2.551 -9.594,6.499l-29.171,72.964c-1.089,2.715 -0.975,5.775 0.314,8.396c1.29,2.627 3.639,4.59 6.444,5.386l84.519,24.116l0.134,207.514c0,8.756 7.123,15.879 15.879,15.879l271.346,0c8.756,0 15.879,-7.123 15.879,-15.878l0.052,-207.528l84.468,-24.102c2.81,-0.799 5.157,-2.761 6.443,-5.381c1.287,-2.621 1.405,-5.68 0.321,-8.397zm-364.571,-42.418l-26.972,66.6l-79.752,-22.755l26.447,-66.151l80.277,22.306zm257.407,289.703l-271.344,0c-1.036,0 -1.879,-0.845 -1.879,-1.883l-0.133,-205.495l275.287,-0.081l-0.051,205.58c-0.001,1.036 -0.843,1.879 -1.88,1.879zm-269.971,-221.379l26.716,-65.967l213.12,0l28.427,65.888l-268.263,0.079zm362.629,-24.478l-79.821,22.775l-28.543,-66.166l81.915,-22.761l26.449,66.152z"/>
    </g>
   </g>
  </g>
  <g stroke="null">
   <path stroke="null" fill="#000000" d="m274.10538,290.67816c-3.09225,-3.29136 -8.10429,-3.29136 -11.19575,0c-3.09225,3.29136 -3.09225,8.62833 0,11.91969c3.09146,3.29136 8.1035,3.29136 11.19575,0c3.09146,-3.29136 3.09146,-8.62833 0,-11.91969z"/>
   <path stroke="null" fill="#000000" d="m279.70325,272.79829c3.09146,-3.29161 8.10429,-3.29161 11.19575,0c3.09146,3.29153 3.09146,8.62782 0,11.92002c-3.09146,3.29136 -8.10429,3.29136 -11.19575,0c-3.09146,-3.2922 -3.09146,-8.6285 0,-11.92002z"/>
   <path stroke="null" fill="#000000" d="m307.69263,290.67816c-3.09146,-3.29136 -8.1035,-3.29136 -11.19575,0c-3.09146,3.29136 -3.09146,8.62833 0,11.91969c3.09225,3.29136 8.10429,3.29136 11.19575,0c3.09225,-3.29136 3.09225,-8.62833 0,-11.91969z"/>
   <path stroke="null" fill="#000000" d="m279.70325,308.55769c3.09146,-3.29136 8.10429,-3.29136 11.19575,0c3.09146,3.2922 3.09146,8.62833 0,11.91969c-3.09146,3.2922 -8.10429,3.2922 -11.19575,0c-3.09146,-3.29136 -3.09146,-8.62749 0,-11.91969z"/>
   <path stroke="null" fill="#000000" d="m199.1385,305.06657l-15.83333,0l0,-16.85714l15.83333,0l0,-16.85714l15.83333,0l0,16.85714l15.83333,0l0,16.85714l-15.83333,0l0,16.85714l-15.83333,0l0,-16.85714z"/>
   <path stroke="null" fill="#000000" d="m207.05517,237.638c-30.60575,0 -55.41667,26.41523 -55.41667,59c0,32.58486 24.81091,59 55.41667,59l79.16667,0c30.60583,0 55.41667,-26.41514 55.41667,-59c0,-32.58477 -24.81083,-59 -55.41667,-59l-79.16667,0zm79.16667,16.85714l-79.16667,0c-21.86124,0 -39.58333,18.86803 -39.58333,42.14286c0,23.27466 17.72209,42.14286 39.58333,42.14286l79.16667,0c21.86108,0 39.58333,-18.8682 39.58333,-42.14286c0,-23.27483 -17.72225,-42.14286 -39.58333,-42.14286z" clip-rule="evenodd" fill-rule="evenodd"/>
  </g>
 </g>
</svg>